<svg xmlns="http://www.w3.org/2000/svg" width="32" height="32" enable-background="new 0 0 32 32" viewBox="0 0 32 32"><path d="M28,8h-4c-0.552,0-1,0.448-1,1s0.448,1,1,1h4c0.551,0,1,0.449,1,1v2c0,0.551-0.449,1-1,1H4c-0.551,0-1-0.449-1-1v-2
		c0-0.551,0.449-1,1-1h4c0.552,0,1-0.448,1-1S8.552,8,8,8H4c-1.654,0-3,1.346-3,3v2c0,1.34,0.889,2.464,2.104,2.848l1.64,12.301
		C4.957,29.748,6.387,31,8,31h16c1.613,0,3.043-1.252,3.255-2.85l1.64-12.302C30.111,15.464,31,14.34,31,13v-2
		C31,9.346,29.654,8,28,8z M25.273,27.886C25.194,28.479,24.599,29,24,29H8c-0.599,0-1.194-0.521-1.273-1.115L5.142,16h21.716
		L25.273,27.886z"/><path d="M9.628 12.929C9.75 12.977 9.876 13 10 13c.397 0 .772-.238.929-.629l4-10c.205-.513-.044-1.095-.557-1.3-.516-.204-1.095.044-1.3.557l-4 10C8.866 12.142 9.116 12.723 9.628 12.929zM21.071 12.372C21.228 12.762 21.604 13 22 13c.124 0 .249-.023.371-.072.513-.206.762-.787.557-1.3l-4-10c-.205-.512-.786-.759-1.3-.557-.513.206-.762.787-.557 1.3L21.071 12.372zM16 26c.552 0 1-.448 1-1v-5c0-.552-.448-1-1-1s-1 .448-1 1v5C15 25.552 15.448 26 16 26zM21 26c.552 0 1-.448 1-1v-5c0-.552-.448-1-1-1s-1 .448-1 1v5C20 25.552 20.448 26 21 26zM11 26c.552 0 1-.448 1-1v-5c0-.552-.448-1-1-1s-1 .448-1 1v5C10 25.552 10.448 26 11 26z"/></svg>